<svg xmlns="http://www.w3.org/2000/svg" viewBox="0 0 393 852" width="393" height="852"><rect width="393" height="852" fill="#F8F6FC"/><rect x="0" y="0" width="393" height="852" rx="0" fill="#F8F6FC"/><text x="20" y="80" font-size="20" fill="#1A1A2E" font-weight="bold" text-anchor="start" font-family="Inter,system-ui,sans-serif">Lock — Alex</text><text x="20" y="125" font-size="13" fill="#6B7280" font-weight="normal" text-anchor="start" font-family="Inter,system-ui,sans-serif">Duration</text><rect x="20" y="135" width="68" height="36" rx="#6C3FC5" fill="8" stroke="#E5E7EB" stroke-width="1"/><text x="54" y="158" font-size="13" fill="#fff" font-weight="normal" text-anchor="middle" font-family="Inter,system-ui,sans-serif">30m</text><rect x="92" y="135" width="68" height="36" rx="#fff" fill="8" stroke="#E5E7EB" stroke-width="1"/><text x="126" y="158" font-size="13" fill="#6B7280" font-weight="normal" text-anchor="middle" font-family="Inter,system-ui,sans-serif">45m</text><rect x="164" y="135" width="68" height="36" rx="#fff" fill="8" stroke="#E5E7EB" stroke-width="1"/><text x="198" y="158" font-size="13" fill="#6B7280" font-weight="normal" text-anchor="middle" font-family="Inter,system-ui,sans-serif">1h</text><rect x="236" y="135" width="68" height="36" rx="#fff" fill="8" stroke="#E5E7EB" stroke-width="1"/><text x="270" y="158" font-size="13" fill="#6B7280" font-weight="normal" text-anchor="middle" font-family="Inter,system-ui,sans-serif">1.5h</text><rect x="308" y="135" width="68" height="36" rx="#fff" fill="8" stroke="#E5E7EB" stroke-width="1"/><text x="342" y="158" font-size="13" fill="#6B7280" font-weight="normal" text-anchor="middle" font-family="Inter,system-ui,sans-serif">2h</text><text x="20" y="210" font-size="13" fill="#6B7280" font-weight="normal" text-anchor="start" font-family="Inter,system-ui,sans-serif">Approval Mode</text><rect x="20" y="222" width="114" height="36" rx="#6C3FC5" fill="8" stroke="#E5E7EB" stroke-width="1"/><text x="77" y="245" font-size="13" fill="#fff" font-weight="normal" text-anchor="middle" font-family="Inter,system-ui,sans-serif">Strict</text><rect x="138" y="222" width="114" height="36" rx="#fff" fill="8" stroke="#E5E7EB" stroke-width="1"/><text x="195" y="245" font-size="13" fill="#6B7280" font-weight="normal" text-anchor="middle" font-family="Inter,system-ui,sans-serif">Balanced</text><rect x="256" y="222" width="114" height="36" rx="#fff" fill="8" stroke="#E5E7EB" stroke-width="1"/><text x="313" y="245" font-size="13" fill="#6B7280" font-weight="normal" text-anchor="middle" font-family="Inter,system-ui,sans-serif">Parent</text><text x="20" y="300" font-size="13" fill="#6B7280" font-weight="normal" text-anchor="start" font-family="Inter,system-ui,sans-serif">Apps to Block</text><rect x="20" y="310" width="353" height="48" rx="#fff" fill="10" stroke="#E5E7EB" stroke-width="1"/><rect x="30" y="322" width="18" height="18" rx="#6C3FC5" fill="4" stroke="#E5E7EB" stroke-width="1"/><text x="56" y="336" font-size="14" fill="#1A1A2E" font-weight="normal" text-anchor="start" font-family="Inter,system-ui,sans-serif">👥 Social Media</text><text x="56" y="352" font-size="10" fill="#6B7280" font-weight="normal" text-anchor="start" font-family="Inter,system-ui,sans-serif">TikTok, Instagram, Snapchat...</text><rect x="20" y="366" width="353" height="48" rx="#fff" fill="10" stroke="#E5E7EB" stroke-width="1"/><rect x="30" y="378" width="18" height="18" rx="#fff" fill="4" stroke="#E5E7EB" stroke-width="1"/><text x="56" y="392" font-size="14" fill="#1A1A2E" font-weight="normal" text-anchor="start" font-family="Inter,system-ui,sans-serif">🎮 Games</text><text x="56" y="408" font-size="10" fill="#6B7280" font-weight="normal" text-anchor="start" font-family="Inter,system-ui,sans-serif">TikTok, Instagram, Snapchat...</text><rect x="20" y="422" width="353" height="48" rx="#fff" fill="10" stroke="#E5E7EB" stroke-width="1"/><rect x="30" y="434" width="18" height="18" rx="#fff" fill="4" stroke="#E5E7EB" stroke-width="1"/><text x="56" y="448" font-size="14" fill="#1A1A2E" font-weight="normal" text-anchor="start" font-family="Inter,system-ui,sans-serif">📺 Entertainment</text><text x="56" y="464" font-size="10" fill="#6B7280" font-weight="normal" text-anchor="start" font-family="Inter,system-ui,sans-serif">TikTok, Instagram, Snapchat...</text><rect x="20" y="490" width="353" height="50" rx="#6C3FC5" fill="10"/><text x="196" y="522" font-size="16" fill="#fff" font-weight="bold" text-anchor="middle" font-family="Inter,system-ui,sans-serif">Lock 2 packs</text></svg>