<svg xmlns="http://www.w3.org/2000/svg" viewBox="0 0 393 852" width="393" height="852"><rect width="393" height="852" fill="#F8F6FC"/><rect x="0" y="0" width="393" height="852" rx="0" fill="#F8F6FC"/><text x="20" y="80" font-size="18" fill="#1A1A2E" font-weight="bold" text-anchor="start" font-family="Inter,system-ui,sans-serif">Alex — Lock Active</text><text x="350" y="80" font-size="13" fill="#6C3FC5" font-weight="normal" text-anchor="end" font-family="Inter,system-ui,sans-serif">Unlock Early</text><rect x="20" y="100" width="353" height="180" rx="#fff" fill="12" stroke="#E5E7EB" stroke-width="1"/><circle cx="196" cy="160" r="55" fill="#6C3FC5"/><text x="196" y="158" font-size="24" fill="#1A1A2E" font-weight="bold" text-anchor="middle" font-family="Inter,system-ui,sans-serif">25:00</text><text x="196" y="178" font-size="11" fill="#6B7280" font-weight="normal" text-anchor="middle" font-family="Inter,system-ui,sans-serif">of 60:00</text><rect x="50" y="220" width="80" height="34" rx="#fff" fill="8" stroke="#6C3FC5" stroke-width="1"/><text x="90" y="242" font-size="12" fill="#6C3FC5" font-weight="normal" text-anchor="middle" font-family="Inter,system-ui,sans-serif">⏸ Pause</text><rect x="140" y="220" width="80" height="34" rx="#fff" fill="8" stroke="#6C3FC5" stroke-width="1"/><text x="180" y="242" font-size="12" fill="#6C3FC5" font-weight="normal" text-anchor="middle" font-family="Inter,system-ui,sans-serif">+15</text><rect x="230" y="220" width="80" height="34" rx="#fff" fill="8" stroke="#6C3FC5" stroke-width="1"/><text x="270" y="242" font-size="12" fill="#6C3FC5" font-weight="normal" text-anchor="middle" font-family="Inter,system-ui,sans-serif">+30</text><rect x="20" y="300" width="353" height="90" rx="#fff" fill="12" stroke="#E5E7EB" stroke-width="1"/><rect x="30" y="315" width="60" height="60" rx="#ddd" fill="8"/><text x="60" y="352" font-size="24" fill="#333" font-weight="normal" text-anchor="middle" font-family="Inter,system-ui,sans-serif">📷</text><text x="100" y="325" font-size="14" fill="#1A1A2E" font-weight="bold" text-anchor="start" font-family="Inter,system-ui,sans-serif">Complete math worksheet</text><rect x="100" y="345" width="70" height="20" rx="#FFF3E0" fill="4"/><text x="135" y="358" font-size="10" fill="#FF8C42" font-weight="normal" text-anchor="middle" font-family="Inter,system-ui,sans-serif">AI: pending</text><rect x="100" y="372" width="80" height="28" rx="#2ECC71" fill="6"/><text x="140" y="391" font-size="12" fill="#fff" font-weight="normal" text-anchor="middle" font-family="Inter,system-ui,sans-serif">Approve</text><rect x="185" y="372" width="80" height="28" rx="#fff" fill="6" stroke="#E74C3C" stroke-width="1"/><text x="225" y="391" font-size="12" fill="#E74C3C" font-weight="normal" text-anchor="middle" font-family="Inter,system-ui,sans-serif">Reject</text></svg>