<svg xmlns="http://www.w3.org/2000/svg" viewBox="0 0 393 852" width="393" height="852"><rect width="393" height="852" fill="#F8F6FC"/><rect x="0" y="0" width="393" height="852" rx="0" fill="#F8F6FC"/><rect x="20" y="60" width="353" height="48" rx="#FF8C42" fill="12"/><text x="196" y="89" font-size="15" fill="#fff" font-weight="bold" text-anchor="middle" font-family="Inter,system-ui,sans-serif">⭐ 5-day streak!</text><circle cx="196" cy="155" r="45" fill="#6C3FC5"/><text x="196" y="158" font-size="20" fill="#1A1A2E" font-weight="bold" text-anchor="middle" font-family="Inter,system-ui,sans-serif">12:34</text><rect x="20" y="190" width="353" height="140" rx="#fff" fill="12" stroke="#E5E7EB" stroke-width="1"/><text x="36" y="210" font-size="14" fill="#1A1A2E" font-weight="bold" text-anchor="start" font-family="Inter,system-ui,sans-serif">Tasks (1/3)</text><rect x="36" y="225" width="18" height="18" rx="#fff" fill="9" stroke="#FF8C42" stroke-width="1"/><text x="62" y="239" font-size="13" fill="#1A1A2E" font-weight="normal" text-anchor="start" font-family="Inter,system-ui,sans-serif">Math worksheet</text><rect x="196" y="226" width="50" height="20" rx="#E8EAF6" fill="4"/><text x="221" y="240" font-size="10" fill="#6C3FC5" font-weight="normal" text-anchor="middle" font-family="Inter,system-ui,sans-serif">Math</text><rect x="256" y="225" width="60" height="24" rx="#FF8C42" fill="6"/><text x="286" y="241" font-size="11" fill="#fff" font-weight="normal" text-anchor="middle" font-family="Inter,system-ui,sans-serif">Submit</text><rect x="36" y="260" width="18" height="18" rx="#2ECC71" fill="9"/><text x="45" y="272" font-size="11" fill="#fff" font-weight="bold" text-anchor="middle" font-family="Inter,system-ui,sans-serif">✓</text><text x="62" y="274" font-size="13" fill="#6B7280" font-weight="normal" text-anchor="start" font-family="Inter,system-ui,sans-serif">Science lab</text><rect x="196" y="262" width="60" height="20" rx="#E8F5E9" fill="4"/><text x="226" y="276" font-size="10" fill="#2ECC71" font-weight="normal" text-anchor="middle" font-family="Inter,system-ui,sans-serif">Science</text><rect x="20" y="350" width="89" height="36" rx="#6C3FC5" fill="8" stroke="#6C3FC5" stroke-width="1"/><text x="64" y="373" font-size="10" fill="#fff" font-weight="normal" text-anchor="middle" font-family="Inter,system-ui,sans-serif">+ Add Tasks</text><rect x="113" y="350" width="89" height="36" rx="#6C3FC5" fill="8" stroke="#6C3FC5" stroke-width="1"/><text x="157" y="373" font-size="10" fill="#fff" font-weight="normal" text-anchor="middle" font-family="Inter,system-ui,sans-serif">📷 Submit Proof</text><rect x="206" y="350" width="89" height="36" rx="#fff" fill="8" stroke="#6C3FC5" stroke-width="1"/><text x="250" y="373" font-size="12" fill="#6C3FC5" font-weight="normal" text-anchor="middle" font-family="Inter,system-ui,sans-serif">☕ Break</text><rect x="299" y="350" width="89" height="36" rx="#fff" fill="8" stroke="#6C3FC5" stroke-width="1"/><text x="343" y="373" font-size="12" fill="#6C3FC5" font-weight="normal" text-anchor="middle" font-family="Inter,system-ui,sans-serif">📋 History</text></svg>