<svg xmlns="http://www.w3.org/2000/svg" viewBox="0 0 393 852" width="393" height="852"><rect width="393" height="852" fill="#F8F6FC"/><rect x="0" y="0" width="393" height="852" rx="0" fill="#F8F6FC"/><text x="20" y="80" font-size="20" fill="#1A1A2E" font-weight="bold" text-anchor="start" font-family="Inter,system-ui,sans-serif">Settings</text><rect x="20" y="100" width="353" height="170" rx="#fff" fill="12" stroke="#E5E7EB" stroke-width="1"/><circle cx="40" cy="120" r="20" fill="#6C3FC5"/><text x="40" y="124" font-size="14" fill="#fff" font-weight="bold" text-anchor="middle" font-family="Inter,system-ui,sans-serif">A</text><text x="68" y="117" font-size="14" fill="#1A1A2E" font-weight="bold" text-anchor="start" font-family="Inter,system-ui,sans-serif">Parent Name</text><text x="68" y="135" font-size="11" fill="#6B7280" font-weight="normal" text-anchor="start" font-family="Inter,system-ui,sans-serif">parent@email.com</text><rect x="20" y="168" width="353" height="50" rx="#fff" fill="0" stroke="#E5E7EB" stroke-width="0.5"/><text x="36" y="198" font-size="14" fill="#1A1A2E" font-weight="normal" text-anchor="start" font-family="Inter,system-ui,sans-serif">⭐ DoneFirst Plus </text><text x="310" y="198" font-size="11" fill="#6C3FC5" font-weight="normal" text-anchor="start" font-family="Inter,system-ui,sans-serif">Upgrade</text><rect x="20" y="218" width="353" height="50" rx="#fff" fill="0" stroke="#E5E7EB" stroke-width="0.5"/><text x="36" y="248" font-size="14" fill="#1A1A2E" font-weight="normal" text-anchor="start" font-family="Inter,system-ui,sans-serif">👥 Co-Parent</text><rect x="20" y="268" width="353" height="50" rx="#fff" fill="0" stroke="#E5E7EB" stroke-width="0.5"/><text x="36" y="298" font-size="14" fill="#1A1A2E" font-weight="normal" text-anchor="start" font-family="Inter,system-ui,sans-serif">🔢 Set Parent PIN</text><rect x="20" y="275" width="353" height="50" rx="#fff" fill="12" stroke="#E5E7EB" stroke-width="1"/><text x="36" y="305" font-size="14" fill="#1A1A2E" font-weight="normal" text-anchor="start" font-family="Inter,system-ui,sans-serif">🌙 Dark Mode</text><rect x="310" y="286" width="44" height="24" rx="#ddd" fill="12"/><circle cx="332" cy="298" r="10" fill="#fff"/><rect x="20" y="340" width="353" height="80" rx="#fff" fill="12" stroke="#E5E7EB" stroke-width="1"/><text x="36" y="358" font-size="12" fill="#6B7280" font-weight="normal" text-anchor="start" font-family="Inter,system-ui,sans-serif">Notifications</text><text x="36" y="382" font-size="13" fill="#1A1A2E" font-weight="normal" text-anchor="start" font-family="Inter,system-ui,sans-serif">Proof submitted</text><rect x="300" y="372" width="44" height="24" rx="#6C3FC5" fill="12"/><circle cx="322" cy="384" r="10" fill="#fff"/><rect x="20" y="425" width="353" height="50" rx="#fff" fill="12" stroke="#E5E7EB" stroke-width="1"/><text x="36" y="455" font-size="14" fill="#E74C3C" font-weight="normal" text-anchor="start" font-family="Inter,system-ui,sans-serif">⚠ Delete Account</text></svg>